<svg class="computer" width="551" height="362" viewBox="0 0 551 362" fill="none" xmlns="http://www.w3.org/2000/svg">
<path d="M160.057 324.536H173.108C173.377 324.536 173.596 324.317 173.596 324.047V316.607C173.596 316.338 173.377 316.119 173.108 316.119H160.057C159.787 316.119 159.568 316.338 159.568 316.607V324.047C159.568 324.317 159.787 324.536 160.057 324.536Z" fill="#3F3D56"/>
<path d="M132.002 324.536H145.053C145.323 324.536 145.541 324.317 145.541 324.047V316.607C145.541 316.338 145.323 316.119 145.053 316.119H132.002C131.732 316.119 131.514 316.338 131.514 316.607V324.047C131.514 324.317 131.732 324.536 132.002 324.536Z" fill="#3F3D56"/>
<path d="M103.947 324.536H116.998C117.268 324.536 117.486 324.317 117.486 324.047V316.607C117.486 316.338 117.268 316.119 116.998 316.119H103.947C103.678 316.119 103.459 316.338 103.459 316.607V324.047C103.459 324.317 103.678 324.536 103.947 324.536Z" fill="#3F3D56"/>
<path d="M75.8927 324.536H88.9436C89.2133 324.536 89.4318 324.317 89.4318 324.047V316.607C89.4318 316.338 89.2133 316.119 88.9436 316.119H75.8927C75.6231 316.119 75.4045 316.338 75.4045 316.607V324.047C75.4045 324.317 75.6231 324.536 75.8927 324.536Z" fill="#3F3D56"/>
<path d="M47.8381 324.536H60.889C61.1586 324.536 61.3772 324.317 61.3772 324.047V316.607C61.3772 316.338 61.1586 316.119 60.889 316.119H47.8381C47.5685 316.119 47.3499 316.338 47.3499 316.607V324.047C47.3499 324.317 47.5685 324.536 47.8381 324.536Z" fill="#3F3D56"/>
<path d="M19.7834 324.536H32.8344C33.104 324.536 33.3225 324.317 33.3225 324.047V316.607C33.3225 316.338 33.104 316.119 32.8344 316.119H19.7834C19.5138 316.119 19.2952 316.338 19.2952 316.607V324.047C19.2952 324.317 19.5138 324.536 19.7834 324.536Z" fill="#3F3D56"/>
<path d="M160.388 338.563H173.439C173.709 338.563 173.927 338.344 173.927 338.075V330.635C173.927 330.365 173.709 330.147 173.439 330.147H160.388C160.119 330.147 159.9 330.365 159.9 330.635V338.075C159.9 338.344 160.119 338.563 160.388 338.563Z" fill="#3F3D56"/>
<path d="M132.333 338.563H145.384C145.654 338.563 145.873 338.344 145.873 338.075V330.635C145.873 330.365 145.654 330.147 145.384 330.147H132.333C132.064 330.147 131.845 330.365 131.845 330.635V338.075C131.845 338.344 132.064 338.563 132.333 338.563Z" fill="#3F3D56"/>
<path d="M104.279 338.563H117.33C117.599 338.563 117.818 338.344 117.818 338.075V330.635C117.818 330.365 117.599 330.147 117.33 330.147H104.279C104.009 330.147 103.791 330.365 103.791 330.635V338.075C103.791 338.344 104.009 338.563 104.279 338.563Z" fill="#3F3D56"/>
<path d="M76.2242 338.563H89.2751C89.5448 338.563 89.7633 338.344 89.7633 338.075V330.635C89.7633 330.365 89.5448 330.147 89.2751 330.147H76.2242C75.9546 330.147 75.736 330.365 75.736 330.635V338.075C75.736 338.344 75.9546 338.563 76.2242 338.563Z" fill="#3F3D56"/>
<path d="M48.1696 338.563H61.2205C61.4901 338.563 61.7087 338.344 61.7087 338.075V330.635C61.7087 330.365 61.4901 330.147 61.2205 330.147H48.1696C47.8999 330.147 47.6814 330.365 47.6814 330.635V338.075C47.6814 338.344 47.8999 338.563 48.1696 338.563Z" fill="#3F3D56"/>
<path d="M20.1149 338.563H33.1658C33.4355 338.563 33.654 338.344 33.654 338.075V330.635C33.654 330.365 33.4355 330.147 33.1658 330.147H20.1149C19.8453 330.147 19.6267 330.365 19.6267 330.635V338.075C19.6267 338.344 19.8453 338.563 20.1149 338.563Z" fill="#3F3D56"/>
<path d="M227.443 115.744C223.161 113.429 218.407 112.122 213.543 111.923C208.679 111.724 203.834 112.638 199.377 114.596C195.453 116.304 191.322 119.367 190.012 124.899C195.307 121.775 202.16 126.711 203.522 134.631L203.204 134.719C202.485 140.204 204.091 146.176 207.201 149.577C207.432 148.043 208.002 146.579 208.87 145.292C209.738 144.005 210.881 142.928 212.217 142.138C214.502 140.636 217.03 139.545 218.774 136.963C220.841 133.902 221.366 129.429 222.188 125.348C223.009 121.267 224.567 116.881 227.443 115.744Z" fill="#6C63FF"/>
<path d="M197.807 162.423C196.341 164.625 194.382 166.007 192.625 167.727C190.596 169.572 189.265 172.06 188.856 174.772C188.634 176.688 188.978 178.636 188.93 180.574C188.882 182.511 188.237 184.692 186.919 185.174C184.838 185.925 183.25 182.061 181.112 181.791C179.413 181.579 177.883 184.253 178.375 186.571C178.867 188.89 181.181 189.916 182.509 188.403C183.711 190.419 182.864 194.077 181.059 194.696C180.868 195.967 180.678 197.232 180.492 198.502C175.93 195.31 171.319 192.066 167.439 187.392C163.124 182.237 160.447 175.911 159.753 169.225C159.25 163.852 159.997 157.707 157.53 153.572C155.556 150.264 152.168 149.534 149.119 149.74C148.563 149.777 148.002 149.841 147.446 149.909C149.244 144.509 151.528 139.282 154.269 134.294C154.89 134.028 155.466 133.669 155.979 133.23C158.816 130.822 160.076 125.946 162.379 122.575C162.527 122.358 162.68 122.146 162.839 121.939C165.195 118.864 168.35 117.281 171.399 115.81C178.148 112.533 185.092 109.214 192.217 109.669L190.19 109.865C187.824 116.493 185.456 123.12 183.086 129.747C182.726 130.763 182.363 131.781 181.996 132.801C180.651 136.57 179.264 140.583 179.471 144.801C179.593 147.3 180.461 149.968 182.112 150.825C183.653 151.619 185.336 150.645 186.823 149.682C187.453 149.279 188.078 148.877 188.708 148.47C190.968 147.014 193.472 145.521 195.859 146.495C198.045 147.385 199.66 150.354 199.967 153.557C200.248 156.67 199.489 159.788 197.807 162.423V162.423Z" fill="#6C63FF"/>
<path d="M541.479 332.799L527.494 310.325L524.7 323.167C524.211 325.416 523.721 327.702 523.267 329.969C519.295 326.577 515.069 323.439 510.933 320.428C498.236 311.214 485.545 301.987 472.86 292.748L476.832 315.785C479.281 329.969 481.839 344.444 487.897 357.413C488.568 358.882 489.293 360.334 490.074 361.748H549.097C549.572 360.434 549.901 359.071 550.077 357.685C550.092 357.595 550.098 357.504 550.095 357.413C551.02 348.616 546.159 340.327 541.479 332.799Z" fill="#F0F0F0"/>
<path d="M11.3945 14.2859V301.31C11.3974 304.968 12.8517 308.475 15.438 311.061C18.0244 313.647 21.5315 315.102 25.1892 315.105H450.529C454.187 315.102 457.694 313.648 460.28 311.061C462.867 308.475 464.321 304.968 464.324 301.31V14.2859C464.315 10.6314 462.859 7.12927 460.273 4.54654C457.688 1.96381 454.184 0.511017 450.529 0.506378H25.1892C21.5347 0.511043 18.0309 1.96385 15.4454 4.54657C12.8598 7.12929 11.4032 10.6314 11.3945 14.2859V14.2859Z" fill="#3F3D56"/>
<path d="M21.3727 17.8572V297.769C21.3761 299.723 22.1539 301.597 23.5358 302.979C24.9177 304.361 26.791 305.138 28.7453 305.142H446.989C448.943 305.138 450.816 304.361 452.198 302.979C453.58 301.597 454.358 299.723 454.361 297.769V17.8572C454.361 15.9005 453.585 14.0238 452.202 12.6388C450.82 11.2538 448.945 10.4735 446.989 10.4693H28.7453C26.7886 10.4736 24.9135 11.2538 23.5314 12.6388C22.1492 14.0238 21.3729 15.9005 21.3727 17.8572V17.8572Z" fill="white"/>
<path d="M2.49891 357.287C3.2781 358.264 4.26853 359.052 5.39582 359.591C6.52311 360.131 7.75795 360.408 9.00761 360.401H464.447C465.692 360.4 466.922 360.121 468.046 359.584C469.17 359.048 470.16 358.267 470.945 357.3C471.73 356.333 472.289 355.203 472.582 353.992C472.875 352.781 472.894 351.521 472.639 350.302L465.569 316.72C465.276 315.351 464.645 314.076 463.733 313.013C462.822 311.95 461.659 311.131 460.351 310.632C459.403 310.261 458.395 310.07 457.377 310.071H16.0494C15.0317 310.07 14.0229 310.261 13.0756 310.632C11.767 311.131 10.6041 311.95 9.69269 313.013C8.7813 314.076 8.15037 315.351 7.85743 316.72L0.787605 350.302C0.53604 351.52 0.559124 352.779 0.85514 353.987C1.15116 355.196 1.71268 356.323 2.49891 357.287V357.287Z" fill="#9695A4"/>
<path d="M440.603 324.536H453.654C453.924 324.536 454.142 324.317 454.142 324.047V316.607C454.142 316.338 453.924 316.119 453.654 316.119H440.603C440.333 316.119 440.115 316.338 440.115 316.607V324.047C440.115 324.317 440.333 324.536 440.603 324.536Z" fill="#3F3D56"/>
<path d="M412.548 324.536H425.599C425.869 324.536 426.088 324.317 426.088 324.047V316.607C426.088 316.338 425.869 316.119 425.599 316.119H412.548C412.279 316.119 412.06 316.338 412.06 316.607V324.047C412.06 324.317 412.279 324.536 412.548 324.536Z" fill="#3F3D56"/>
<path d="M384.494 324.536H397.545C397.814 324.536 398.033 324.317 398.033 324.047V316.607C398.033 316.338 397.814 316.119 397.545 316.119H384.494C384.224 316.119 384.005 316.338 384.005 316.607V324.047C384.005 324.317 384.224 324.536 384.494 324.536Z" fill="#3F3D56"/>
<path d="M356.439 324.536H369.49C369.76 324.536 369.978 324.317 369.978 324.047V316.607C369.978 316.338 369.76 316.119 369.49 316.119H356.439C356.17 316.119 355.951 316.338 355.951 316.607V324.047C355.951 324.317 356.17 324.536 356.439 324.536Z" fill="#3F3D56"/>
<path d="M328.384 324.536H341.435C341.705 324.536 341.924 324.317 341.924 324.047V316.607C341.924 316.338 341.705 316.119 341.435 316.119H328.384C328.115 316.119 327.896 316.338 327.896 316.607V324.047C327.896 324.317 328.115 324.536 328.384 324.536Z" fill="#3F3D56"/>
<path d="M300.33 324.536H313.381C313.65 324.536 313.869 324.317 313.869 324.047V316.607C313.869 316.338 313.65 316.119 313.381 316.119H300.33C300.06 316.119 299.842 316.338 299.842 316.607V324.047C299.842 324.317 300.06 324.536 300.33 324.536Z" fill="#3F3D56"/>
<path d="M272.275 324.536H285.326C285.596 324.536 285.814 324.317 285.814 324.047V316.607C285.814 316.338 285.596 316.119 285.326 316.119H272.275C272.006 316.119 271.787 316.338 271.787 316.607V324.047C271.787 324.317 272.006 324.536 272.275 324.536Z" fill="#3F3D56"/>
<path d="M244.221 324.536H257.271C257.541 324.536 257.76 324.317 257.76 324.047V316.607C257.76 316.338 257.541 316.119 257.271 316.119H244.221C243.951 316.119 243.732 316.338 243.732 316.607V324.047C243.732 324.317 243.951 324.536 244.221 324.536Z" fill="#3F3D56"/>
<path d="M216.166 324.536H229.217C229.486 324.536 229.705 324.317 229.705 324.047V316.607C229.705 316.338 229.486 316.119 229.217 316.119H216.166C215.896 316.119 215.678 316.338 215.678 316.607V324.047C215.678 324.317 215.896 324.536 216.166 324.536Z" fill="#3F3D56"/>
<path d="M188.111 324.536H201.162C201.432 324.536 201.65 324.317 201.65 324.047V316.607C201.65 316.338 201.432 316.119 201.162 316.119H188.111C187.842 316.119 187.623 316.338 187.623 316.607V324.047C187.623 324.317 187.842 324.536 188.111 324.536Z" fill="#3F3D56"/>
<path d="M440.935 338.563H453.985C454.255 338.563 454.474 338.344 454.474 338.075V330.635C454.474 330.365 454.255 330.147 453.985 330.147H440.935C440.665 330.147 440.446 330.365 440.446 330.635V338.075C440.446 338.344 440.665 338.563 440.935 338.563Z" fill="#3F3D56"/>
<path d="M412.88 338.563H425.931C426.2 338.563 426.419 338.344 426.419 338.075V330.635C426.419 330.365 426.2 330.147 425.931 330.147H412.88C412.61 330.147 412.392 330.365 412.392 330.635V338.075C412.392 338.344 412.61 338.563 412.88 338.563Z" fill="#3F3D56"/>
<path d="M384.825 338.563H397.876C398.146 338.563 398.364 338.344 398.364 338.075V330.635C398.364 330.365 398.146 330.147 397.876 330.147H384.825C384.556 330.147 384.337 330.365 384.337 330.635V338.075C384.337 338.344 384.556 338.563 384.825 338.563Z" fill="#3F3D56"/>
<path d="M356.771 338.563H369.822C370.091 338.563 370.31 338.344 370.31 338.075V330.635C370.31 330.365 370.091 330.147 369.822 330.147H356.771C356.501 330.147 356.282 330.365 356.282 330.635V338.075C356.282 338.344 356.501 338.563 356.771 338.563Z" fill="#3F3D56"/>
<path d="M328.716 338.563H341.767C342.037 338.563 342.255 338.344 342.255 338.075V330.635C342.255 330.365 342.037 330.147 341.767 330.147H328.716C328.446 330.147 328.228 330.365 328.228 330.635V338.075C328.228 338.344 328.446 338.563 328.716 338.563Z" fill="#3F3D56"/>
<path d="M300.661 338.563H313.712C313.982 338.563 314.2 338.344 314.2 338.075V330.635C314.2 330.365 313.982 330.147 313.712 330.147H300.661C300.392 330.147 300.173 330.365 300.173 330.635V338.075C300.173 338.344 300.392 338.563 300.661 338.563Z" fill="#3F3D56"/>
<path d="M272.607 338.563H285.658C285.927 338.563 286.146 338.344 286.146 338.075V330.635C286.146 330.365 285.927 330.147 285.658 330.147H272.607C272.337 330.147 272.118 330.365 272.118 330.635V338.075C272.118 338.344 272.337 338.563 272.607 338.563Z" fill="#3F3D56"/>
<path d="M244.552 338.563H257.603C257.873 338.563 258.091 338.344 258.091 338.075V330.635C258.091 330.365 257.873 330.147 257.603 330.147H244.552C244.282 330.147 244.064 330.365 244.064 330.635V338.075C244.064 338.344 244.282 338.563 244.552 338.563Z" fill="#3F3D56"/>
<path d="M216.497 338.563H229.548C229.818 338.563 230.037 338.344 230.037 338.075V330.635C230.037 330.365 229.818 330.147 229.548 330.147H216.497C216.228 330.147 216.009 330.365 216.009 330.635V338.075C216.009 338.344 216.228 338.563 216.497 338.563Z" fill="#3F3D56"/>
<path d="M188.443 338.563H201.494C201.763 338.563 201.982 338.344 201.982 338.075V330.635C201.982 330.365 201.763 330.147 201.494 330.147H188.443C188.173 330.147 187.955 330.365 187.955 330.635V338.075C187.955 338.344 188.173 338.563 188.443 338.563Z" fill="#3F3D56"/>
<path d="M177.081 355.396H288.323C288.593 355.396 288.811 355.177 288.811 354.908V347.468C288.811 347.198 288.593 346.979 288.323 346.979H177.081C176.811 346.979 176.593 347.198 176.593 347.468V354.908C176.593 355.177 176.811 355.396 177.081 355.396Z" fill="#3F3D56"/>
<path d="M333.147 180.029C333.101 203.658 324.217 226.415 308.242 243.826C292.267 261.237 270.357 272.043 246.819 274.119C223.282 276.195 199.818 269.391 181.043 255.044C162.267 240.698 149.538 219.847 145.356 196.59C141.175 173.334 145.844 149.355 158.447 129.367C171.049 109.379 190.673 94.8276 213.459 88.5745C236.246 82.3214 260.548 84.8185 281.587 95.5748C302.626 106.331 318.881 124.568 327.155 146.702C327.361 147.257 327.563 147.813 327.758 148.374V148.38C328.632 150.846 329.401 153.359 330.066 155.917C332.118 163.79 333.154 171.893 333.147 180.029V180.029Z" fill="#F0EFF5"/>
<path d="M211.25 207.669C204.649 203.604 198.047 199.54 191.446 195.475L191.558 195.187C187.454 196.75 185.749 204.046 186.428 210.012C187.106 215.979 189.406 221.312 190.568 227.126C192.135 235.081 191.543 243.311 188.855 250.961C197.536 241.221 205.218 230.636 211.786 219.363C212.704 217.942 213.403 216.392 213.86 214.764C214.345 213.029 214.172 211.176 213.375 209.56C212.835 208.763 212.105 208.113 211.25 207.669V207.669Z" fill="#6C63FF"/>
<path d="M185.197 133.723C184.422 135.388 184.302 137.283 184.862 139.032C185.514 140.441 186.695 141.535 188.15 142.077L191.797 143.884C193.011 144.486 194.319 145.093 195.556 144.599C197.048 144.002 198.082 141.663 197.814 139.491C197.53 137.18 196.073 135.591 194.726 134.237C192.841 132.343 190.956 130.449 189.07 128.555L188.008 129.856C186.859 130.977 185.908 132.284 185.197 133.723V133.723Z" fill="#6C63FF"/>
<path d="M313.593 158.426C315.234 158.813 316.875 159.199 318.516 159.586C318.23 165.128 315.483 170.257 311.799 172.115C310.264 172.888 308.554 173.174 307.284 174.619C306.135 175.931 305.553 177.975 305.018 179.928C304.081 183.337 303.144 186.746 302.207 190.155C301.202 193.828 299.91 197.909 297.295 199.233C295.051 200.371 292.484 198.979 290.758 196.644C289.032 194.31 287.979 191.171 286.957 188.111C287.021 191.446 285.47 194.718 283.273 195.877C281.071 197.036 278.393 195.988 276.921 193.399C275.863 191.541 275.423 189.091 274.386 187.206C273.348 185.322 271.173 184.242 270.04 186.01C269.293 187.185 269.389 188.985 269.018 190.478C268.832 191.469 268.341 192.377 267.614 193.076C266.888 193.775 265.961 194.231 264.964 194.379C264.046 194.358 263.143 194.15 262.308 193.769C261.474 193.388 260.726 192.84 260.11 192.161C256.868 188.845 254.758 184.589 254.08 180.002C253.621 177.803 253.679 175.527 254.25 173.354C254.901 171.295 256.473 169.707 258.035 170.098C259.061 167.928 257.034 165.048 255.208 165.302C253.376 165.557 251.942 167.52 250.439 169.029C248.941 170.538 246.844 171.633 245.336 170.135C245.353 170.42 245.312 170.706 245.214 170.974C245.115 171.242 244.963 171.487 244.766 171.693C244.568 171.9 244.33 172.063 244.067 172.173C243.803 172.283 243.52 172.337 243.234 172.332C242.231 172.044 241.299 171.55 240.498 170.882C237.041 168.727 232.653 170.156 230.197 174.232C231.732 167.7 233.982 160.205 238.698 158.67C240.625 158.04 242.726 158.559 244.547 157.468C247.771 155.536 248.422 148.237 245.638 145.225C245.992 148.073 245.923 151.397 244.42 153.345C242.917 155.293 239.762 154.022 239.953 151.143C239.91 151.548 239.74 151.929 239.467 152.231C239.195 152.534 238.833 152.743 238.435 152.827C238.036 152.912 237.622 152.868 237.249 152.702C236.877 152.537 236.567 152.258 236.364 151.905C235.363 150.381 235.448 147.887 236.157 146.067C236.888 144.417 237.937 142.928 239.243 141.684C241.758 138.989 244.309 136.263 247.22 134.569C250.137 132.876 253.503 132.304 256.425 133.987C257.966 134.876 259.321 136.359 260.893 137.142C261.27 137.376 261.689 137.531 262.127 137.6C262.565 137.668 263.012 137.648 263.442 137.54C263.872 137.433 264.276 137.24 264.63 136.973C264.984 136.707 265.281 136.372 265.504 135.988C266.673 133.934 266.123 130.885 266.557 128.318C267.335 123.782 271.871 121.659 274.386 124.655C272.507 124.173 270.564 126.397 270.331 129.091C270.093 131.785 271.453 134.506 273.274 135.321C276.334 136.676 279.33 133.267 281.643 130.112C284.057 126.809 286.474 123.508 288.895 120.209C289.281 119.647 289.715 119.119 290.192 118.631C290.95 117.892 291.96 117.469 293.019 117.447C294.078 117.426 295.105 117.807 295.892 118.515C298.338 120.51 299.487 124.602 301.493 127.418C304.404 131.51 308.761 132.505 312.815 133.299C315.838 133.887 318.862 134.478 321.888 135.072C323.905 138.825 325.665 142.71 327.155 146.702C321.606 149.232 316.899 153.301 313.593 158.426V158.426Z" fill="#6C63FF"/>
<path d="M330.066 155.917C329.446 157.745 329.107 159.657 329.06 161.587C326.467 158.421 326.054 152.487 327.758 148.38C328.632 150.846 329.401 153.359 330.066 155.917Z" fill="#6C63FF"/>
<path d="M323.365 222.116C321.097 226.721 318.459 231.134 315.478 235.312C313.572 234.497 311.524 235.953 309.74 237.318C307.877 238.747 305.637 240.14 303.727 238.837C301.773 237.504 301.143 233.772 301.763 230.813C302.475 228.083 303.719 225.521 305.426 223.275C307.014 220.904 308.713 218.442 310.92 217.521C313.133 216.6 315.975 217.902 316.621 221.047L318.188 220.994C317.309 219.787 317.77 217.288 318.95 216.849C320.311 216.335 321.491 218.204 322.296 219.856C322.656 220.602 323.021 221.354 323.365 222.116Z" fill="#6C63FF"/>
<path d="M263.357 199.757C259.989 199.969 257.321 195.823 255.548 191.744C253.776 187.666 252.158 183.002 249.12 180.926C247.383 179.739 245.404 179.576 243.52 179.002C242.452 178.732 241.464 178.211 240.637 177.483C239.81 176.755 239.168 175.841 238.765 174.815L236.629 173.952C233.641 175.446 230.904 177.397 228.518 179.736C225.791 182.632 224.093 186.345 223.685 190.302C223.277 194.578 224.784 199.346 227.6 200.952C229.824 202.222 232.415 201.422 234.669 202.584C237.484 204.035 239.156 208.253 239.789 212.417C240.422 216.581 240.261 220.908 240.714 225.119C241.167 229.33 242.415 233.712 244.997 235.87C248.228 238.571 252.97 236.327 254.42 231.411C255.131 229 255.106 226.279 255.638 223.775C256.575 219.367 259.102 216.097 261.107 212.481C263.112 208.865 264.69 203.954 263.357 199.757Z" fill="#6C63FF"/>
<path d="M230.078 156.441C230.392 156.73 230.685 157.041 230.955 157.372C231.234 157.854 231.377 158.402 231.367 158.959C231.358 159.516 231.196 160.059 230.901 160.531C231.307 160.508 231.703 160.401 232.065 160.217C232.427 160.032 232.748 159.775 233.005 159.461C233.62 158.761 234.161 157.999 234.619 157.188C234.834 156.911 234.988 156.59 235.07 156.248C235.152 155.906 235.161 155.551 235.095 155.206C234.936 154.752 234.559 154.558 234.296 154.216C233.93 153.549 233.68 152.824 233.558 152.073C233.411 151.369 233.072 150.719 232.577 150.198C232.082 149.676 231.451 149.303 230.756 149.12L230.924 149.152C230.637 149.323 230.41 149.579 230.276 149.884C230.141 150.19 230.106 150.53 230.174 150.857C230.277 151.518 230.701 152.066 230.659 152.74C230.598 153.709 229.63 154.163 229.57 155.132C229.561 155.618 229.743 156.088 230.078 156.441V156.441Z" fill="#6C63FF"/>
<path d="M224.308 139.979L224.323 139.976C224.426 139.881 224.522 139.779 224.61 139.67L224.308 139.979Z" fill="#6C63FF"/>
<path d="M225.318 144.526C225.722 144.171 226.021 143.712 226.183 143.198C226.344 142.685 226.361 142.137 226.232 141.614C225.987 140.513 225.121 139.772 224.323 139.976C224.091 140.211 223.803 140.383 223.487 140.476C223.17 140.569 222.835 140.58 222.513 140.508C222.019 140.381 221.477 140.054 221.049 140.426C220.804 140.704 220.633 141.039 220.55 141.4C220.392 141.886 220.233 142.373 220.075 142.86C220 143.034 219.98 143.227 220.019 143.413C220.049 143.487 220.098 143.553 220.161 143.603C220.224 143.653 220.299 143.686 220.378 143.698C221.329 143.979 222.28 144.259 223.231 144.54C223.559 144.69 223.915 144.767 224.276 144.765C224.637 144.763 224.992 144.681 225.318 144.526V144.526Z" fill="#6C63FF"/>
<path d="M297.117 207.304C296.678 206.585 296.238 205.865 295.798 205.145C295.367 204.311 294.776 203.57 294.06 202.963C293.903 202.831 293.721 202.732 293.525 202.671C293.329 202.611 293.122 202.59 292.918 202.611C292.714 202.631 292.516 202.692 292.335 202.791C292.155 202.889 291.996 203.022 291.868 203.182L291.922 203.593C293.099 204.856 293.901 206.421 294.238 208.113C294.338 208.849 294.303 209.61 294.391 210.349C294.401 210.692 294.477 211.029 294.617 211.342C294.757 211.655 294.957 211.937 295.206 212.172C295.898 212.635 296.711 211.953 297.204 211.121C297.644 210.438 297.842 209.626 297.765 208.816C297.655 208.273 297.434 207.759 297.117 207.304Z" fill="#6C63FF"/>
<path d="M304.014 208.241C304.098 207.567 304.043 206.883 303.853 206.231C303.822 205.349 304.056 204.478 304.524 203.73C304.99 203.025 305.343 202.251 305.57 201.437C305.666 201.066 305.649 200.675 305.52 200.314C305.375 199.987 305.022 199.838 304.82 200.097L305.253 200.376C304.669 200.271 304.068 200.3 303.497 200.461C303.171 200.585 302.88 200.787 302.648 201.048C302.416 201.309 302.251 201.622 302.166 201.961C302.095 202.489 301.978 203.009 301.817 203.517C301.559 204.048 301.059 204.224 300.746 204.69C300.531 205.103 300.423 205.562 300.431 206.027C300.439 206.492 300.562 206.948 300.79 207.353C301.184 208.016 301.811 208.509 302.548 208.736C303.077 208.926 303.772 208.936 304.014 208.241Z" fill="#6C63FF"/>
<path d="M316.296 211.947C316.487 212.444 316.743 212.913 317.057 213.343C317.645 213.936 318.444 213.572 319.157 213.428C319.804 213.325 320.467 213.4 321.076 213.644C321.684 213.888 322.215 214.292 322.612 214.813C322.335 213.434 321.732 212.141 320.852 211.043C319.971 209.945 318.841 209.074 317.554 208.504C315.883 207.925 314.122 207.65 312.353 207.69L312.051 207.768C312.821 210.008 315.238 209.958 316.296 211.947Z" fill="#6C63FF"/>
<path d="M264.278 216.529L264.282 216.539L264.37 216.37L264.278 216.529Z" fill="#6C63FF"/>
<path d="M262.415 220.136C262.008 220.873 261.659 221.641 261.369 222.432C260.986 223.713 260.732 225.029 260.612 226.361C260.517 227.118 260.488 228.085 260.962 228.454C261.099 228.545 261.263 228.582 261.425 228.56C261.587 228.538 261.736 228.458 261.843 228.335C262.106 228.056 262.322 227.735 262.481 227.386C263.413 225.78 264.137 224.062 264.635 222.273C265.155 220.375 265.031 218.359 264.282 216.539C263.66 217.738 263.037 218.937 262.415 220.136Z" fill="#6C63FF"/>
<path d="M244.44 124.053C244.736 124.342 245.11 124.539 245.517 124.618C245.923 124.697 246.343 124.656 246.726 124.499C247.52 124.153 248.247 123.672 248.877 123.079C249.399 122.692 249.842 122.209 250.181 121.656C250.368 121.325 250.488 120.961 250.534 120.584C250.58 120.207 250.551 119.824 250.448 119.458C250.302 119.108 250.07 118.8 249.772 118.565C249.474 118.329 249.121 118.174 248.747 118.113C247.691 117.799 246.635 117.486 245.58 117.173L246.343 116.485C245.558 116.063 244.688 116.846 244.197 117.815C243.882 118.448 243.663 119.123 243.546 119.82C243.379 120.548 243.372 121.304 243.527 122.035C243.681 122.766 243.993 123.455 244.44 124.053V124.053Z" fill="#6C63FF"/>
<path d="M263.078 117.796C263.376 118.124 263.787 118.327 264.228 118.363C264.67 118.399 265.108 118.265 265.455 117.99C265.753 117.766 266.001 117.481 266.182 117.155C266.363 116.829 266.474 116.468 266.506 116.096C266.581 115.266 266.17 114.343 265.584 114.271L265.718 113.494C264.588 113.29 263.198 113.249 262.593 114.621C262.389 115.146 262.326 115.716 262.411 116.273C262.496 116.831 262.726 117.356 263.078 117.796V117.796Z" fill="#6C63FF"/>
<path d="M431.529 61.1429H44.2052C43.9398 61.137 43.6872 61.0275 43.5016 60.8377C43.3159 60.6479 43.2119 60.393 43.2119 60.1275C43.2119 59.862 43.3159 59.6071 43.5016 59.4173C43.6872 59.2275 43.9398 59.118 44.2052 59.1122H431.529C431.794 59.118 432.047 59.2275 432.232 59.4173C432.418 59.6071 432.522 59.862 432.522 60.1275C432.522 60.393 432.418 60.6479 432.232 60.8377C432.047 61.0275 431.794 61.137 431.529 61.1429Z" fill="#CACACA"/>
<path d="M66.5604 46.928C72.5943 46.928 77.4857 41.9275 77.4857 35.7592C77.4857 29.5908 72.5943 24.5904 66.5604 24.5904C60.5265 24.5904 55.635 29.5908 55.635 35.7592C55.635 41.9275 60.5265 46.928 66.5604 46.928Z" fill="#3F3D56"/>
<path d="M104.302 46.928C110.336 46.928 115.228 41.9275 115.228 35.7592C115.228 29.5908 110.336 24.5904 104.302 24.5904C98.2685 24.5904 93.3771 29.5908 93.3771 35.7592C93.3771 41.9275 98.2685 46.928 104.302 46.928Z" fill="#3F3D56"/>
<path d="M142.044 46.928C148.078 46.928 152.97 41.9275 152.97 35.7592C152.97 29.5908 148.078 24.5904 142.044 24.5904C136.011 24.5904 131.119 29.5908 131.119 35.7592C131.119 41.9275 136.011 46.928 142.044 46.928Z" fill="#3F3D56"/>
<path d="M408.912 27.3587H382.102C381.57 27.3693 381.064 27.5878 380.692 27.9673C380.32 28.3469 380.111 28.8572 380.111 29.3887C380.111 29.9202 380.32 30.4305 380.692 30.8101C381.064 31.1896 381.57 31.4082 382.102 31.4187H408.912C409.443 31.4082 409.949 31.1896 410.321 30.8101C410.693 30.4305 410.902 29.9202 410.902 29.3887C410.902 28.8572 410.693 28.3469 410.321 27.9673C409.949 27.5878 409.443 27.3693 408.912 27.3587V27.3587Z" fill="#3F3D56"/>
<path d="M408.912 34.9787H382.102C381.57 34.9892 381.064 35.2078 380.692 35.5873C380.32 35.9669 380.111 36.4772 380.111 37.0087C380.111 37.5402 380.32 38.0505 380.692 38.4301C381.064 38.8096 381.57 39.0281 382.102 39.0387H408.912C409.443 39.0281 409.949 38.8096 410.321 38.4301C410.693 38.0505 410.902 37.5402 410.902 37.0087C410.902 36.4772 410.693 35.9669 410.321 35.5873C409.949 35.2078 409.443 34.9892 408.912 34.9787V34.9787Z" fill="#3F3D56"/>
<path d="M408.912 42.5887H382.102C381.57 42.5992 381.064 42.8177 380.692 43.1973C380.32 43.5768 380.111 44.0872 380.111 44.6187C380.111 45.1502 380.32 45.6605 380.692 46.0401C381.064 46.4196 381.57 46.6381 382.102 46.6487H408.912C409.443 46.6381 409.949 46.4196 410.321 46.0401C410.693 45.6605 410.902 45.1502 410.902 44.6187C410.902 44.0872 410.693 43.5768 410.321 43.1973C409.949 42.8177 409.443 42.5992 408.912 42.5887V42.5887Z" fill="#3F3D56"/>
<g opacity="0.35">
<path d="M441.79 184.723C448.024 182.005 435.382 180.422 421.038 179.902C406.695 179.382 389.343 179.411 380.177 177.931C371.312 176.5 371.965 173.955 371.22 171.65C370.474 169.344 367.066 166.98 353.233 166.468C335.995 165.829 307.569 168.287 294.556 166.811C282.413 165.434 289.631 161.114 271.924 160.949C261.813 160.854 248.787 162.278 237.536 162.622C229.561 162.968 221.571 162.552 213.675 161.378C208.192 160.48 204.372 159.341 198.2 158.547C181.997 156.464 150.296 157.164 122.001 159.834C93.7061 162.505 69.4524 166.881 55.774 171.215C42.0957 175.549 38.3166 179.817 41.5029 183.435C43.5374 185.746 48.7438 187.907 61.3733 188.836C84.9958 190.572 127.054 187.583 151.464 189.163C165.068 190.044 171.104 192.227 183.041 193.422C195.865 194.706 214.638 194.774 233.082 194.743C271.487 194.68 310.873 194.285 351.035 193.562C367.81 193.259 385.387 192.866 403.237 191.426C421.087 189.986 439.293 187.207 443.059 184.601" fill="white"/>
</g>
</svg>
