<svg width="830" height="588" viewBox="0 0 830 588" fill="none" xmlns="http://www.w3.org/2000/svg">
<g clip-path="url(#clip0_2_83)">
<path d="M85.757 572.858L99.518 572.857L106.065 519.775L85.754 519.776L85.757 572.858Z" fill="#FFB6B6"/>
<path d="M85.2721 587.214L127.591 587.212V586.677C127.591 582.309 125.856 578.119 122.767 575.03C119.678 571.941 115.488 570.206 111.12 570.206H111.119L103.388 564.341L88.9656 570.206L85.2714 570.207L85.2721 587.214Z" fill="#2F2E41"/>
<path d="M107.98 508.635L118.814 517.121L156.702 479.371L140.712 466.846L107.98 508.635Z" fill="#FFB6B6"/>
<path d="M98.745 519.638L132.061 545.734L132.391 545.312C135.084 541.873 136.302 537.505 135.775 533.168C135.248 528.832 133.02 524.882 129.581 522.188L129.58 522.187L127.112 512.804L112.141 508.527L109.232 506.249L98.745 519.638Z" fill="#2F2E41"/>
<path d="M172.771 266.775C172.771 266.775 191.035 285.716 182.918 329.686L189.733 404.974L191.492 408.46C192.54 410.536 192.906 412.891 192.537 415.188C192.169 417.485 191.085 419.607 189.44 421.252V421.252L187.991 425.745L186.638 434.539L136.241 510.304L116.962 490.01L148.079 418.981L139.624 400.716L120.006 337.128L106.477 453.481L109.182 553.598H83.2874L67.2412 441.981L50.3295 285.039L59.1263 266.775H172.771Z" fill="#412E2E"/>
<path d="M54.547 299.321L54.3624 299.062C44.506 285.262 59.3301 252.103 61.5659 247.296C58.911 246.435 56.6367 244.679 55.1306 242.329C53.6244 239.979 52.9795 237.18 53.3056 234.408L54.2694 226.215L55.2741 218.178L48.0767 210.981L48.0564 210.802L43.9144 174.559L37.8921 150.487C35.6229 141.387 35.8163 131.847 38.4524 122.847C41.0885 113.846 46.0722 105.709 52.8921 99.271L66.8127 97.0605L83.7306 80.7599H111.013L120.367 89.6973C137.83 92.76 140.83 91.7599 155.83 109.76L149.014 165.722L147.313 173.421L147.318 183.863L151.641 188.667C153.198 190.398 154.33 192.468 154.945 194.713C155.561 196.958 155.644 199.316 155.187 201.599L154.619 204.441C159.077 206.352 163.331 240.307 164.348 245.049L165.866 252.134C167.165 253.848 175.739 265.28 175.739 268.405C175.739 268.875 175.392 269.328 174.649 269.831C168.806 273.788 145.512 301.854 131.218 296.134C115.993 290.047 55.4713 299.179 54.8615 299.272L54.547 299.321Z" fill="#382ADB"/>
<path d="M50.8816 234.245C50.8816 234.245 57.8876 194.651 50.8295 179.76L22.8295 181.76L27.0907 238.247L51.5679 300.964C51.1943 302.896 51.3386 304.893 51.9862 306.752C52.6338 308.61 53.7616 310.264 55.2551 311.546C56.7486 312.828 58.5547 313.691 60.49 314.049C62.4252 314.407 64.4208 314.247 66.274 313.584C68.1272 312.922 69.7721 311.781 71.0418 310.277C72.3114 308.773 73.1606 306.96 73.5031 305.022C73.8455 303.084 73.6691 301.09 72.9917 299.242C72.3142 297.394 71.16 295.759 69.646 294.501L50.8816 234.245Z" fill="#FFB6B6"/>
<path d="M22.8295 158.76L24.5624 139.889C25.2146 132.786 27.2646 125.883 30.5944 119.576C33.9243 113.268 38.4683 107.682 43.9651 103.137V103.137C47.3805 100.334 51.5117 98.5422 55.892 97.964C60.2722 97.3858 64.7269 98.0442 68.7526 99.8649V99.8649C74.1931 102.37 78.4795 106.847 80.7451 112.391C83.0108 117.935 83.0866 124.133 80.9573 129.731C74.4858 146.704 76.8226 164.653 64.2038 166.841L65.5748 173.363L53.1674 213.854L17.8294 209.76L22.8295 158.76Z" fill="#7D78BD"/>
<path d="M209.206 215.479C209.206 215.479 188.697 180.893 173.635 174.207L153.713 193.983L193.78 234.027L253.236 265.611C254.213 267.32 255.624 268.74 257.327 269.726C259.03 270.713 260.964 271.231 262.932 271.229C264.9 271.227 266.832 270.704 268.533 269.713C270.234 268.722 271.642 267.3 272.615 265.589C273.588 263.878 274.091 261.94 274.072 259.972C274.054 258.004 273.516 256.076 272.512 254.383C271.507 252.691 270.073 251.294 268.354 250.335C266.636 249.376 264.694 248.888 262.726 248.922L209.206 215.479Z" fill="#FFB6B6"/>
<path d="M138.714 176.546L127.721 161.11C123.584 155.3 120.636 148.73 119.047 141.777C117.458 134.824 117.26 127.625 118.463 120.595V120.595C119.225 116.243 121.188 112.19 124.132 108.895C127.076 105.601 130.882 103.195 135.121 101.95V101.95C140.879 100.301 147.048 100.899 152.382 103.625C157.715 106.351 161.814 111 163.85 116.633C170.013 133.72 192.489 161.803 184.35 171.691L189.642 175.742L197.641 198.529L168.182 218.471L138.714 176.546Z" fill="#594FC5"/>
<path d="M95.5308 72.8854C112.264 72.8854 125.829 59.3202 125.829 42.5867C125.829 25.8532 112.264 12.2881 95.5308 12.2881C78.7973 12.2881 65.2321 25.8532 65.2321 42.5867C65.2321 59.3202 78.7973 72.8854 95.5308 72.8854Z" fill="#A88A8A"/>
<path d="M73.5423 63.9427C73.2779 63.7108 73.0282 63.4631 72.7697 63.2247C72.7605 63.2492 72.759 63.2742 72.7492 63.2986L73.5423 63.9427Z" fill="#2F2E41"/>
<path d="M120.36 10.5913C118.855 8.1679 116.77 6.15751 114.293 4.74155C112.6 3.9205 110.822 3.29023 108.989 2.86235L104.194 1.55408C101.738 0.79385 99.21 0.284897 96.6504 0.035064C93.096 -0.140278 89.5618 0.66451 86.4338 2.36151C83.3057 4.05851 80.7042 6.58246 78.9133 9.6577C77.4646 12.2272 76.3025 15.4292 73.5065 16.3693C71.252 17.1274 68.7923 16.0581 66.4228 16.2656C65.0344 16.4668 63.717 17.0073 62.5874 17.8394C61.4579 18.6714 60.551 19.7692 59.9471 21.0356C58.7662 23.5839 58.1851 26.3689 58.2482 29.1768C58.1551 35.5517 59.3993 41.8753 61.9005 47.7398C64.4017 53.6043 68.1044 58.8794 72.7698 63.2248C73.5518 61.1635 72.2638 58.938 71.2456 56.9662C70.2153 54.971 69.5787 52.1894 71.3042 50.7524C73.2242 49.1534 76.3003 50.7039 78.571 49.6612C79.2975 49.2439 79.9093 48.6532 80.3518 47.9419C80.7944 47.2305 81.0538 46.4207 81.1071 45.5846C81.3269 43.9279 81.0974 42.2438 81.2014 40.5758C81.3045 38.9224 81.7341 37.3058 82.4654 35.8193C83.1967 34.3328 84.2153 33.0059 85.4623 31.9153C86.7092 30.8247 88.1599 29.9919 89.7306 29.465C91.3012 28.9382 92.9607 28.7277 94.6131 28.8457C99.7815 29.2149 104.797 32.7467 109.771 31.2937C112.106 30.6117 114.097 28.8753 116.512 28.5832C119.186 28.2597 121.702 29.7689 123.972 31.218C124.797 27.7144 124.903 24.0797 124.282 20.5342C123.661 16.9887 122.327 13.6061 120.36 10.5913Z" fill="#2F2E41"/>
<path d="M225.399 570.191L217.689 557.801L216.149 564.881C215.879 566.121 215.609 567.381 215.359 568.631C213.169 566.761 210.839 565.031 208.56 563.371C201.56 558.291 194.563 553.205 187.569 548.111L189.759 560.811C191.109 568.631 192.519 576.611 195.859 583.761C196.229 584.571 196.629 585.371 197.06 586.151H229.6C229.861 585.427 230.042 584.676 230.14 583.911C230.148 583.862 230.151 583.812 230.149 583.761C230.66 578.911 227.979 574.341 225.399 570.191Z" fill="#F0F0F0"/>
<path d="M789.482 556.81L775.497 534.336L772.704 547.179C772.214 549.428 771.724 551.713 771.271 553.981C767.299 550.589 763.072 547.451 758.937 544.44C746.24 535.225 733.548 525.998 720.863 516.76L724.835 539.796C727.284 553.981 729.842 568.456 735.9 581.425C736.571 582.894 737.297 584.345 738.077 585.76H797.101C797.576 584.446 797.904 583.083 798.08 581.697C798.095 581.607 798.101 581.516 798.098 581.425C799.024 572.627 794.162 564.338 789.482 556.81Z" fill="#F0F0F0"/>
<path d="M827.941 587.369L1.19069 587.676C0.875498 587.675 0.573534 587.55 0.350983 587.326C0.128431 587.103 0.00344849 586.801 0.00344849 586.486C0.00344849 586.17 0.128431 585.868 0.350983 585.645C0.573534 585.422 0.875498 585.296 1.19069 585.295L827.941 584.988C828.256 584.989 828.558 585.114 828.78 585.338C829.003 585.561 829.128 585.863 829.128 586.178C829.128 586.494 829.003 586.796 828.78 587.019C828.558 587.242 828.256 587.368 827.941 587.369V587.369Z" fill="#CACACA"/>
<path d="M259.398 238.297V525.321C259.401 528.979 260.855 532.486 263.441 535.073C266.028 537.659 269.535 539.113 273.193 539.116H698.533C702.19 539.113 705.697 537.659 708.284 535.073C710.87 532.486 712.325 528.979 712.327 525.321V238.297C712.319 234.643 710.862 231.141 708.277 228.558C705.691 225.975 702.187 224.522 698.533 224.518H273.193C269.538 224.523 266.034 225.975 263.449 228.558C260.863 231.141 259.407 234.643 259.398 238.297V238.297Z" fill="#3F3D56"/>
<path d="M269.376 241.869V521.781C269.38 523.735 270.157 525.608 271.539 526.99C272.921 528.372 274.794 529.15 276.749 529.153H694.992C696.946 529.15 698.82 528.372 700.201 526.99C701.583 525.608 702.361 523.735 702.365 521.781V241.869C702.364 239.912 701.588 238.035 700.206 236.65C698.824 235.265 696.949 234.485 694.992 234.481H276.749C274.792 234.485 272.917 235.265 271.535 236.65C270.153 238.035 269.376 239.912 269.376 241.869V241.869Z" fill="white"/>
<path d="M250.502 581.299C251.282 582.276 252.272 583.063 253.399 583.603C254.527 584.142 255.761 584.419 257.011 584.413H712.45C713.696 584.411 714.925 584.132 716.049 583.596C717.173 583.059 718.164 582.279 718.948 581.311C719.733 580.344 720.292 579.214 720.585 578.003C720.878 576.793 720.898 575.532 720.642 574.313L713.572 540.732C713.279 539.362 712.648 538.088 711.737 537.025C710.825 535.961 709.663 535.143 708.354 534.644C707.407 534.272 706.398 534.082 705.38 534.083H264.053C263.035 534.082 262.026 534.272 261.079 534.644C259.77 535.143 258.608 535.961 257.696 537.025C256.785 538.088 256.154 539.362 255.861 540.732L248.791 574.313C248.539 575.531 248.563 576.791 248.859 577.999C249.155 579.207 249.716 580.335 250.502 581.299V581.299Z" fill="#9695A4"/>
<path d="M688.606 548.547H701.657C701.927 548.547 702.146 548.329 702.146 548.059V540.619C702.146 540.349 701.927 540.131 701.657 540.131H688.606C688.337 540.131 688.118 540.349 688.118 540.619V548.059C688.118 548.329 688.337 548.547 688.606 548.547Z" fill="#3F3D56"/>
<path d="M660.552 548.547H673.603C673.872 548.547 674.091 548.329 674.091 548.059V540.619C674.091 540.349 673.872 540.131 673.603 540.131H660.552C660.282 540.131 660.064 540.349 660.064 540.619V548.059C660.064 548.329 660.282 548.547 660.552 548.547Z" fill="#3F3D56"/>
<path d="M632.497 548.547H645.548C645.818 548.547 646.036 548.329 646.036 548.059V540.619C646.036 540.349 645.818 540.131 645.548 540.131H632.497C632.228 540.131 632.009 540.349 632.009 540.619V548.059C632.009 548.329 632.228 548.547 632.497 548.547Z" fill="#3F3D56"/>
<path d="M604.443 548.547H617.494C617.763 548.547 617.982 548.329 617.982 548.059V540.619C617.982 540.349 617.763 540.131 617.494 540.131H604.443C604.173 540.131 603.954 540.349 603.954 540.619V548.059C603.954 548.329 604.173 548.547 604.443 548.547Z" fill="#3F3D56"/>
<path d="M576.388 548.547H589.439C589.708 548.547 589.927 548.329 589.927 548.059V540.619C589.927 540.349 589.708 540.131 589.439 540.131H576.388C576.118 540.131 575.9 540.349 575.9 540.619V548.059C575.9 548.329 576.118 548.547 576.388 548.547Z" fill="#3F3D56"/>
<path d="M548.333 548.547H561.384C561.654 548.547 561.872 548.329 561.872 548.059V540.619C561.872 540.349 561.654 540.131 561.384 540.131H548.333C548.064 540.131 547.845 540.349 547.845 540.619V548.059C547.845 548.329 548.064 548.547 548.333 548.547Z" fill="#3F3D56"/>
<path d="M520.279 548.547H533.33C533.599 548.547 533.818 548.329 533.818 548.059V540.619C533.818 540.349 533.599 540.131 533.33 540.131H520.279C520.009 540.131 519.79 540.349 519.79 540.619V548.059C519.79 548.329 520.009 548.547 520.279 548.547Z" fill="#3F3D56"/>
<path d="M492.224 548.547H505.275C505.545 548.547 505.763 548.329 505.763 548.059V540.619C505.763 540.349 505.545 540.131 505.275 540.131H492.224C491.954 540.131 491.736 540.349 491.736 540.619V548.059C491.736 548.329 491.954 548.547 492.224 548.547Z" fill="#3F3D56"/>
<path d="M464.169 548.547H477.22C477.49 548.547 477.708 548.329 477.708 548.059V540.619C477.708 540.349 477.49 540.131 477.22 540.131H464.169C463.9 540.131 463.681 540.349 463.681 540.619V548.059C463.681 548.329 463.9 548.547 464.169 548.547Z" fill="#3F3D56"/>
<path d="M436.115 548.547H449.166C449.435 548.547 449.654 548.329 449.654 548.059V540.619C449.654 540.349 449.435 540.131 449.166 540.131H436.115C435.845 540.131 435.627 540.349 435.627 540.619V548.059C435.627 548.329 435.845 548.547 436.115 548.547Z" fill="#3F3D56"/>
<path d="M408.06 548.547H421.111C421.381 548.547 421.599 548.329 421.599 548.059V540.619C421.599 540.349 421.381 540.131 421.111 540.131H408.06C407.79 540.131 407.572 540.349 407.572 540.619V548.059C407.572 548.329 407.79 548.547 408.06 548.547Z" fill="#3F3D56"/>
<path d="M380.005 548.547H393.056C393.326 548.547 393.545 548.329 393.545 548.059V540.619C393.545 540.349 393.326 540.131 393.056 540.131H380.005C379.736 540.131 379.517 540.349 379.517 540.619V548.059C379.517 548.329 379.736 548.547 380.005 548.547Z" fill="#3F3D56"/>
<path d="M351.951 548.547H365.002C365.271 548.547 365.49 548.329 365.49 548.059V540.619C365.49 540.349 365.271 540.131 365.002 540.131H351.951C351.681 540.131 351.463 540.349 351.463 540.619V548.059C351.463 548.329 351.681 548.547 351.951 548.547Z" fill="#3F3D56"/>
<path d="M323.896 548.547H336.947C337.217 548.547 337.435 548.329 337.435 548.059V540.619C337.435 540.349 337.217 540.131 336.947 540.131H323.896C323.627 540.131 323.408 540.349 323.408 540.619V548.059C323.408 548.329 323.627 548.547 323.896 548.547Z" fill="#3F3D56"/>
<path d="M295.842 548.547H308.892C309.162 548.547 309.381 548.329 309.381 548.059V540.619C309.381 540.349 309.162 540.131 308.892 540.131H295.842C295.572 540.131 295.353 540.349 295.353 540.619V548.059C295.353 548.329 295.572 548.547 295.842 548.547Z" fill="#3F3D56"/>
<path d="M267.787 548.547H280.838C281.107 548.547 281.326 548.329 281.326 548.059V540.619C281.326 540.349 281.107 540.131 280.838 540.131H267.787C267.517 540.131 267.299 540.349 267.299 540.619V548.059C267.299 548.329 267.517 548.547 267.787 548.547Z" fill="#3F3D56"/>
<path d="M688.938 562.574H701.989C702.259 562.574 702.477 562.356 702.477 562.086V554.646C702.477 554.377 702.259 554.158 701.989 554.158H688.938C688.668 554.158 688.45 554.377 688.45 554.646V562.086C688.45 562.356 688.668 562.574 688.938 562.574Z" fill="#3F3D56"/>
<path d="M660.883 562.574H673.934C674.204 562.574 674.422 562.356 674.422 562.086V554.646C674.422 554.377 674.204 554.158 673.934 554.158H660.883C660.614 554.158 660.395 554.377 660.395 554.646V562.086C660.395 562.356 660.614 562.574 660.883 562.574Z" fill="#3F3D56"/>
<path d="M632.829 562.574H645.88C646.149 562.574 646.368 562.356 646.368 562.086V554.646C646.368 554.377 646.149 554.158 645.88 554.158H632.829C632.559 554.158 632.341 554.377 632.341 554.646V562.086C632.341 562.356 632.559 562.574 632.829 562.574Z" fill="#3F3D56"/>
<path d="M604.774 562.574H617.825C618.095 562.574 618.313 562.356 618.313 562.086V554.646C618.313 554.377 618.095 554.158 617.825 554.158H604.774C604.504 554.158 604.286 554.377 604.286 554.646V562.086C604.286 562.356 604.504 562.574 604.774 562.574Z" fill="#3F3D56"/>
<path d="M576.719 562.574H589.77C590.04 562.574 590.259 562.356 590.259 562.086V554.646C590.259 554.377 590.04 554.158 589.77 554.158H576.719C576.45 554.158 576.231 554.377 576.231 554.646V562.086C576.231 562.356 576.45 562.574 576.719 562.574Z" fill="#3F3D56"/>
<path d="M548.665 562.574H561.716C561.985 562.574 562.204 562.356 562.204 562.086V554.646C562.204 554.377 561.985 554.158 561.716 554.158H548.665C548.395 554.158 548.177 554.377 548.177 554.646V562.086C548.177 562.356 548.395 562.574 548.665 562.574Z" fill="#3F3D56"/>
<path d="M520.61 562.574H533.661C533.931 562.574 534.149 562.356 534.149 562.086V554.646C534.149 554.377 533.931 554.158 533.661 554.158H520.61C520.34 554.158 520.122 554.377 520.122 554.646V562.086C520.122 562.356 520.34 562.574 520.61 562.574Z" fill="#3F3D56"/>
<path d="M492.555 562.574H505.606C505.876 562.574 506.095 562.356 506.095 562.086V554.646C506.095 554.377 505.876 554.158 505.606 554.158H492.555C492.286 554.158 492.067 554.377 492.067 554.646V562.086C492.067 562.356 492.286 562.574 492.555 562.574Z" fill="#3F3D56"/>
<path d="M464.501 562.574H477.552C477.821 562.574 478.04 562.356 478.04 562.086V554.646C478.04 554.377 477.821 554.158 477.552 554.158H464.501C464.231 554.158 464.013 554.377 464.013 554.646V562.086C464.013 562.356 464.231 562.574 464.501 562.574Z" fill="#3F3D56"/>
<path d="M436.446 562.574H449.497C449.767 562.574 449.985 562.356 449.985 562.086V554.646C449.985 554.377 449.767 554.158 449.497 554.158H436.446C436.177 554.158 435.958 554.377 435.958 554.646V562.086C435.958 562.356 436.177 562.574 436.446 562.574Z" fill="#3F3D56"/>
<path d="M408.392 562.574H421.443C421.712 562.574 421.931 562.356 421.931 562.086V554.646C421.931 554.377 421.712 554.158 421.443 554.158H408.392C408.122 554.158 407.903 554.377 407.903 554.646V562.086C407.903 562.356 408.122 562.574 408.392 562.574Z" fill="#3F3D56"/>
<path d="M380.337 562.574H393.388C393.657 562.574 393.876 562.356 393.876 562.086V554.646C393.876 554.377 393.657 554.158 393.388 554.158H380.337C380.067 554.158 379.849 554.377 379.849 554.646V562.086C379.849 562.356 380.067 562.574 380.337 562.574Z" fill="#3F3D56"/>
<path d="M352.282 562.574H365.333C365.603 562.574 365.821 562.356 365.821 562.086V554.646C365.821 554.377 365.603 554.158 365.333 554.158H352.282C352.013 554.158 351.794 554.377 351.794 554.646V562.086C351.794 562.356 352.013 562.574 352.282 562.574Z" fill="#3F3D56"/>
<path d="M324.228 562.574H337.279C337.548 562.574 337.767 562.356 337.767 562.086V554.646C337.767 554.377 337.548 554.158 337.279 554.158H324.228C323.958 554.158 323.739 554.377 323.739 554.646V562.086C323.739 562.356 323.958 562.574 324.228 562.574Z" fill="#3F3D56"/>
<path d="M296.173 562.574H309.224C309.494 562.574 309.712 562.356 309.712 562.086V554.646C309.712 554.377 309.494 554.158 309.224 554.158H296.173C295.903 554.158 295.685 554.377 295.685 554.646V562.086C295.685 562.356 295.903 562.574 296.173 562.574Z" fill="#3F3D56"/>
<path d="M268.118 562.574H281.169C281.439 562.574 281.657 562.356 281.657 562.086V554.646C281.657 554.377 281.439 554.158 281.169 554.158H268.118C267.849 554.158 267.63 554.377 267.63 554.646V562.086C267.63 562.356 267.849 562.574 268.118 562.574Z" fill="#3F3D56"/>
<path d="M425.084 579.407H536.327C536.596 579.407 536.815 579.189 536.815 578.919V571.479C536.815 571.209 536.596 570.991 536.327 570.991H425.084C424.815 570.991 424.596 571.209 424.596 571.479V578.919C424.596 579.189 424.815 579.407 425.084 579.407Z" fill="#3F3D56"/>
<path d="M581.15 404.04C581.104 427.669 572.22 450.426 556.245 467.838C540.271 485.249 518.361 496.055 494.823 498.13C471.285 500.206 447.822 493.402 429.046 479.056C410.271 464.709 397.541 443.858 393.36 420.602C389.178 397.345 393.848 373.366 406.45 353.378C419.052 333.39 438.676 318.839 461.463 312.586C484.25 306.333 508.551 308.83 529.591 319.586C550.63 330.343 566.884 348.58 575.158 370.713C575.365 371.269 575.566 371.825 575.762 372.386V372.391C576.635 374.858 577.405 377.37 578.07 379.929C580.122 387.801 581.157 395.904 581.15 404.04V404.04Z" fill="#F0EFF5"/>
<path d="M475.446 339.756C471.164 337.44 466.41 336.133 461.546 335.934C456.682 335.735 451.837 336.65 447.381 338.608C443.457 340.315 439.325 343.379 438.016 348.911C443.31 345.786 450.164 350.723 451.526 358.642L451.208 358.73C450.488 364.216 452.095 370.188 455.205 373.589C455.436 372.054 456.006 370.59 456.874 369.303C457.741 368.017 458.885 366.939 460.221 366.149C462.506 364.647 465.033 363.556 466.777 360.974C468.845 357.914 469.37 353.44 470.191 349.36C471.013 345.279 472.571 340.893 475.446 339.756Z" fill="#6C63FF"/>
<path d="M445.81 386.434C444.344 388.636 442.386 390.018 440.628 391.738C438.599 393.584 437.268 396.072 436.859 398.784C436.637 400.7 436.981 402.648 436.933 404.585C436.886 406.523 436.24 408.703 434.922 409.185C432.842 409.937 431.254 406.073 429.115 405.803C427.416 405.591 425.886 408.264 426.379 410.583C426.871 412.901 429.184 413.928 430.513 412.414C431.714 414.431 430.867 418.089 429.062 418.708C428.872 419.978 428.681 421.243 428.496 422.514C423.933 419.322 419.323 416.077 415.443 411.403C411.127 406.249 408.451 399.923 407.757 393.236C407.254 387.864 408 381.718 405.534 377.584C403.559 374.276 400.171 373.545 397.122 373.752C396.567 373.789 396.005 373.852 395.45 373.921C397.248 368.52 399.531 363.294 402.273 358.306C402.893 358.039 403.47 357.681 403.982 357.242C406.82 354.833 408.08 349.958 410.382 346.586C410.53 346.369 410.684 346.157 410.843 345.951C413.198 342.875 416.353 341.293 419.402 339.821C426.151 336.545 433.096 333.226 440.221 333.681L438.193 333.877C435.827 340.504 433.459 347.131 431.09 353.759C430.73 354.775 430.366 355.793 429.999 356.813C428.655 360.582 427.268 364.594 427.474 368.813C427.596 371.311 428.464 373.979 430.116 374.837C431.656 375.631 433.339 374.657 434.827 373.693C435.457 373.291 436.081 372.889 436.711 372.481C438.971 371.025 441.475 369.533 443.862 370.507C446.049 371.396 447.663 374.366 447.97 377.568C448.252 380.681 447.492 383.8 445.81 386.434V386.434Z" fill="#6C63FF"/>
<path d="M459.253 431.68C452.652 427.616 446.051 423.551 439.449 419.487L439.561 419.198C435.457 420.761 433.753 428.057 434.431 434.024C435.11 439.99 437.41 445.324 438.571 451.137C440.138 459.093 439.547 467.323 436.859 474.973C445.539 465.233 453.221 454.647 459.79 443.375C460.707 441.954 461.406 440.404 461.864 438.775C462.348 437.04 462.176 435.187 461.379 433.571C460.839 432.774 460.108 432.124 459.253 431.68V431.68Z" fill="#6C63FF"/>
<path d="M433.2 357.735C432.425 359.399 432.306 361.295 432.866 363.043C433.517 364.452 434.699 365.546 436.153 366.088L439.801 367.896C441.014 368.497 442.322 369.105 443.559 368.61C445.051 368.013 446.086 365.674 445.818 363.503C445.533 361.192 444.077 359.602 442.729 358.249C440.844 356.355 438.959 354.46 437.074 352.566L436.012 353.867C434.862 354.988 433.912 356.296 433.2 357.735V357.735Z" fill="#6C63FF"/>
<path d="M561.597 382.438C563.238 382.824 564.879 383.211 566.52 383.597C566.234 389.139 563.487 394.269 559.802 396.126C558.267 396.899 556.558 397.185 555.287 398.63C554.139 399.943 553.556 401.986 553.022 403.939C552.085 407.348 551.148 410.757 550.211 414.166C549.205 417.84 547.914 421.921 545.299 423.244C543.054 424.382 540.487 422.99 538.761 420.656C537.036 418.321 535.982 415.182 534.961 412.123C535.024 415.458 533.473 418.729 531.277 419.888C529.075 421.047 526.396 419.999 524.925 417.411C523.866 415.553 523.427 413.102 522.389 411.218C521.352 409.333 519.176 408.253 518.043 410.021C517.297 411.197 517.392 412.996 517.022 414.489C516.835 415.48 516.344 416.388 515.618 417.087C514.891 417.787 513.964 418.242 512.967 418.39C512.05 418.369 511.146 418.162 510.312 417.78C509.477 417.399 508.729 416.852 508.113 416.172C504.871 412.856 502.761 408.601 502.084 404.014C501.625 401.814 501.683 399.538 502.253 397.365C502.904 395.306 504.476 393.718 506.038 394.11C507.065 391.939 505.038 389.06 503.211 389.314C501.38 389.568 499.945 391.532 498.442 393.04C496.944 394.549 494.848 395.645 493.339 394.147C493.357 394.432 493.315 394.717 493.217 394.985C493.119 395.253 492.966 395.498 492.769 395.705C492.572 395.911 492.334 396.074 492.07 396.184C491.807 396.294 491.523 396.348 491.238 396.343C490.235 396.056 489.303 395.562 488.501 394.893C485.045 392.739 480.656 394.168 478.2 398.244C479.735 391.712 481.985 384.216 486.701 382.681C488.628 382.051 490.73 382.57 492.551 381.48C495.774 379.548 496.425 372.248 493.641 369.236C493.996 372.084 493.927 375.408 492.424 377.356C490.92 379.304 487.765 378.034 487.956 375.154C487.913 375.559 487.743 375.94 487.471 376.243C487.198 376.545 486.837 376.754 486.438 376.839C486.04 376.923 485.625 376.88 485.253 376.714C484.881 376.548 484.571 376.269 484.367 375.917C483.367 374.392 483.451 371.899 484.161 370.078C484.892 368.429 485.94 366.94 487.247 365.695C489.761 363.001 492.312 360.275 495.224 358.581C498.14 356.887 501.507 356.315 504.429 357.999C505.969 358.888 507.324 360.37 508.896 361.153C509.273 361.387 509.693 361.543 510.131 361.611C510.569 361.68 511.016 361.66 511.446 361.552C511.876 361.444 512.28 361.251 512.634 360.985C512.988 360.718 513.285 360.383 513.507 359.999C514.677 357.946 514.126 354.897 514.56 352.329C515.338 347.793 519.875 345.67 522.389 348.666C520.51 348.185 518.567 350.408 518.334 353.102C518.096 355.797 519.457 358.517 521.278 359.333C524.337 360.688 527.333 357.279 529.646 354.124C532.06 350.821 534.477 347.52 536.898 344.22C537.285 343.658 537.719 343.131 538.195 342.643C538.953 341.904 539.964 341.48 541.022 341.459C542.081 341.437 543.108 341.819 543.896 342.526C546.341 344.522 547.49 348.614 549.496 351.43C552.408 355.521 556.764 356.517 560.819 357.311C563.841 357.898 566.865 358.489 569.892 359.084C571.909 362.836 573.668 366.722 575.158 370.713C569.609 373.244 564.903 377.313 561.597 382.438V382.438Z" fill="#6C63FF"/>
<path d="M578.07 379.929C577.45 381.757 577.11 383.668 577.064 385.598C574.47 382.433 574.057 376.499 575.762 372.391C576.635 374.858 577.405 377.37 578.07 379.929Z" fill="#6C63FF"/>
<path d="M571.368 446.127C569.101 450.732 566.463 455.145 563.481 459.324C561.576 458.508 559.527 459.964 557.743 461.33C555.88 462.759 553.641 464.151 551.73 462.849C549.777 461.515 549.147 457.783 549.766 454.824C550.478 452.095 551.723 449.533 553.429 447.287C555.017 444.915 556.716 442.454 558.924 441.533C561.136 440.612 563.979 441.914 564.625 445.058L566.191 445.005C565.313 443.798 565.773 441.3 566.954 440.86C568.314 440.347 569.494 442.215 570.299 443.867C570.659 444.613 571.024 445.365 571.368 446.127Z" fill="#6C63FF"/>
<path d="M511.36 423.769C507.992 423.98 505.325 419.835 503.552 415.756C501.779 411.677 500.162 407.013 497.123 404.937C495.387 403.751 493.407 403.588 491.524 403.013C490.456 402.743 489.467 402.223 488.64 401.495C487.813 400.767 487.172 399.852 486.769 398.827L484.633 397.964C481.644 399.457 478.908 401.409 476.521 403.747C473.795 406.643 472.096 410.356 471.688 414.313C471.28 418.589 472.787 423.357 475.603 424.964C477.828 426.233 480.418 425.433 482.672 426.595C485.488 428.047 487.159 432.264 487.792 436.428C488.425 440.592 488.265 444.919 488.717 449.131C489.17 453.342 490.418 457.724 493 459.882C496.232 462.583 500.973 460.338 502.423 455.422C503.134 453.011 503.11 450.29 503.642 447.787C504.578 443.379 507.106 440.108 509.111 436.492C511.115 432.876 512.693 427.965 511.36 423.769Z" fill="#6C63FF"/>
<path d="M478.081 380.453C478.395 380.742 478.688 381.053 478.958 381.384C479.237 381.865 479.38 382.414 479.371 382.97C479.361 383.527 479.2 384.07 478.904 384.542C479.31 384.519 479.706 384.412 480.069 384.228C480.431 384.044 480.751 383.787 481.009 383.473C481.623 382.773 482.164 382.011 482.622 381.2C482.838 380.922 482.992 380.602 483.074 380.26C483.156 379.918 483.164 379.562 483.098 379.217C482.939 378.763 482.563 378.569 482.299 378.228C481.933 377.56 481.684 376.835 481.561 376.084C481.415 375.38 481.075 374.731 480.58 374.209C480.085 373.687 479.454 373.314 478.759 373.131L478.928 373.164C478.64 373.334 478.414 373.59 478.279 373.896C478.145 374.202 478.109 374.542 478.178 374.869C478.28 375.529 478.705 376.078 478.662 376.751C478.602 377.72 477.633 378.175 477.574 379.144C477.564 379.63 477.747 380.1 478.081 380.453V380.453Z" fill="#6C63FF"/>
<path d="M472.311 363.99L472.326 363.987C472.43 363.893 472.526 363.791 472.613 363.681L472.311 363.99Z" fill="#6C63FF"/>
<path d="M473.321 368.537C473.726 368.182 474.025 367.723 474.186 367.21C474.347 366.696 474.364 366.148 474.235 365.626C473.991 364.524 473.125 363.784 472.326 363.987C472.094 364.222 471.807 364.394 471.49 364.487C471.174 364.581 470.839 364.592 470.517 364.52C470.023 364.393 469.481 364.065 469.053 364.437C468.808 364.715 468.636 365.05 468.554 365.411C468.395 365.898 468.237 366.384 468.078 366.871C468.003 367.045 467.983 367.238 468.022 367.424C468.052 367.499 468.101 367.564 468.164 367.614C468.227 367.664 468.302 367.697 468.381 367.71C469.333 367.99 470.284 368.271 471.235 368.551C471.562 368.702 471.919 368.779 472.279 368.777C472.64 368.774 472.996 368.692 473.321 368.537V368.537Z" fill="#6C63FF"/>
<path d="M545.121 431.316C544.681 430.596 544.242 429.876 543.802 429.156C543.37 428.323 542.78 427.582 542.064 426.974C541.907 426.842 541.724 426.743 541.528 426.683C541.332 426.622 541.126 426.602 540.921 426.622C540.717 426.643 540.519 426.704 540.339 426.802C540.158 426.9 540 427.033 539.872 427.194L539.925 427.605C541.102 428.867 541.904 430.432 542.242 432.125C542.342 432.86 542.307 433.622 542.395 434.36C542.404 434.703 542.481 435.04 542.621 435.353C542.76 435.666 542.96 435.948 543.209 436.184C543.902 436.646 544.714 435.964 545.207 435.132C545.648 434.449 545.845 433.637 545.768 432.828C545.658 432.285 545.438 431.77 545.121 431.316Z" fill="#6C63FF"/>
<path d="M552.018 432.252C552.101 431.579 552.047 430.895 551.857 430.243C551.825 429.361 552.059 428.49 552.528 427.742C552.994 427.036 553.347 426.263 553.574 425.449C553.67 425.078 553.652 424.687 553.524 424.326C553.378 423.999 553.026 423.85 552.824 424.108L553.256 424.387C552.672 424.283 552.072 424.312 551.5 424.472C551.174 424.597 550.883 424.798 550.652 425.059C550.42 425.321 550.255 425.634 550.17 425.972C550.098 426.5 549.981 427.021 549.821 427.529C549.562 428.059 549.063 428.236 548.749 428.701C548.535 429.114 548.427 429.574 548.435 430.038C548.442 430.503 548.565 430.959 548.793 431.365C549.187 432.028 549.814 432.521 550.552 432.748C551.08 432.937 551.776 432.947 552.018 432.252Z" fill="#6C63FF"/>
<path d="M564.299 435.958C564.49 436.455 564.746 436.925 565.06 437.355C565.648 437.947 566.447 437.583 567.161 437.439C567.808 437.337 568.471 437.412 569.079 437.656C569.687 437.9 570.218 438.304 570.615 438.825C570.339 437.445 569.735 436.152 568.855 435.054C567.975 433.956 566.844 433.085 565.558 432.515C563.886 431.937 562.125 431.661 560.357 431.702L560.055 431.779C560.824 434.02 563.241 433.97 564.299 435.958Z" fill="#6C63FF"/>
<path d="M512.281 440.541L512.286 440.55L512.374 440.381L512.281 440.541Z" fill="#6C63FF"/>
<path d="M510.418 444.147C510.012 444.885 509.662 445.652 509.373 446.443C508.99 447.724 508.736 449.041 508.615 450.372C508.521 451.129 508.491 452.097 508.966 452.466C509.102 452.556 509.267 452.594 509.429 452.572C509.591 452.55 509.739 452.47 509.846 452.346C510.11 452.067 510.325 451.747 510.484 451.397C511.417 449.792 512.141 448.073 512.639 446.284C513.158 444.387 513.034 442.37 512.286 440.55C511.663 441.749 511.041 442.948 510.418 444.147Z" fill="#6C63FF"/>
<path d="M492.444 348.065C492.74 348.354 493.114 348.55 493.52 348.63C493.926 348.709 494.347 348.668 494.73 348.511C495.523 348.164 496.251 347.683 496.881 347.09C497.403 346.704 497.845 346.221 498.185 345.668C498.372 345.337 498.492 344.972 498.537 344.595C498.583 344.218 498.554 343.836 498.452 343.47C498.306 343.119 498.073 342.812 497.775 342.576C497.478 342.341 497.125 342.185 496.75 342.124C495.694 341.811 494.639 341.498 493.583 341.185L494.347 340.497C493.561 340.075 492.692 340.858 492.201 341.826C491.886 342.459 491.666 343.135 491.549 343.832C491.382 344.56 491.376 345.316 491.53 346.047C491.685 346.778 491.996 347.466 492.444 348.065V348.065Z" fill="#6C63FF"/>
<path d="M511.081 341.808C511.379 342.136 511.79 342.338 512.232 342.374C512.673 342.41 513.112 342.277 513.458 342.001C513.757 341.777 514.004 341.493 514.186 341.166C514.367 340.84 514.477 340.479 514.509 340.108C514.584 339.277 514.174 338.354 513.587 338.283L513.721 337.505C512.592 337.301 511.202 337.26 510.596 338.632C510.392 339.158 510.33 339.728 510.415 340.285C510.5 340.842 510.73 341.367 511.081 341.808V341.808Z" fill="#6C63FF"/>
<path d="M679.532 285.154H292.209C291.943 285.148 291.691 285.039 291.505 284.849C291.319 284.659 291.215 284.404 291.215 284.139C291.215 283.873 291.319 283.619 291.505 283.429C291.691 283.239 291.943 283.129 292.209 283.124H679.532C679.797 283.129 680.05 283.239 680.236 283.429C680.421 283.619 680.525 283.873 680.525 284.139C680.525 284.404 680.421 284.659 680.236 284.849C680.05 285.039 679.797 285.148 679.532 285.154Z" fill="#CACACA"/>
<path d="M314.564 270.939C320.598 270.939 325.489 265.939 325.489 259.771C325.489 253.602 320.598 248.602 314.564 248.602C308.53 248.602 303.638 253.602 303.638 259.771C303.638 265.939 308.53 270.939 314.564 270.939Z" fill="#3F3D56"/>
<path d="M352.306 270.939C358.34 270.939 363.231 265.939 363.231 259.771C363.231 253.602 358.34 248.602 352.306 248.602C346.272 248.602 341.381 253.602 341.381 259.771C341.381 265.939 346.272 270.939 352.306 270.939Z" fill="#3F3D56"/>
<path d="M390.048 270.939C396.082 270.939 400.973 265.939 400.973 259.771C400.973 253.602 396.082 248.602 390.048 248.602C384.014 248.602 379.123 253.602 379.123 259.771C379.123 265.939 384.014 270.939 390.048 270.939Z" fill="#3F3D56"/>
<path d="M656.915 251.37H630.105C629.574 251.381 629.068 251.599 628.695 251.979C628.323 252.358 628.115 252.869 628.115 253.4C628.115 253.932 628.323 254.442 628.695 254.822C629.068 255.201 629.574 255.42 630.105 255.43H656.915C657.446 255.42 657.953 255.201 658.325 254.822C658.697 254.442 658.905 253.932 658.905 253.4C658.905 252.869 658.697 252.358 658.325 251.979C657.953 251.599 657.446 251.381 656.915 251.37V251.37Z" fill="#3F3D56"/>
<path d="M656.915 258.99H630.105C629.574 259.001 629.068 259.219 628.695 259.599C628.323 259.978 628.115 260.489 628.115 261.02C628.115 261.552 628.323 262.062 628.695 262.442C629.068 262.821 629.574 263.04 630.105 263.05H656.915C657.446 263.04 657.953 262.821 658.325 262.442C658.697 262.062 658.905 261.552 658.905 261.02C658.905 260.489 658.697 259.978 658.325 259.599C657.953 259.219 657.446 259.001 656.915 258.99V258.99Z" fill="#3F3D56"/>
<path d="M656.915 266.6H630.105C629.574 266.611 629.068 266.829 628.695 267.209C628.323 267.588 628.115 268.099 628.115 268.63C628.115 269.162 628.323 269.672 628.695 270.052C629.068 270.431 629.574 270.65 630.105 270.66H656.915C657.446 270.65 657.953 270.431 658.325 270.052C658.697 269.672 658.905 269.162 658.905 268.63C658.905 268.099 658.697 267.588 658.325 267.209C657.953 266.829 657.446 266.611 656.915 266.6V266.6Z" fill="#3F3D56"/>
<g opacity="0.35">
<path d="M689.794 408.734C696.028 406.016 683.385 404.434 669.042 403.914C654.698 403.393 637.347 403.422 628.181 401.942C619.316 400.511 619.969 397.967 619.223 395.661C618.477 393.355 615.069 390.991 601.236 390.479C583.998 389.84 555.572 392.299 542.559 390.823C530.416 389.446 537.634 385.125 519.927 384.96C509.816 384.866 496.79 386.29 485.539 386.634C477.564 386.98 469.575 386.563 461.679 385.39C456.195 384.491 452.376 383.352 446.204 382.559C430 380.475 398.299 381.175 370.004 383.846C341.71 386.516 317.456 390.892 303.777 395.226C290.099 399.561 286.32 403.828 289.506 407.447C291.541 409.758 296.747 411.918 309.377 412.847C332.999 414.584 375.057 411.594 399.467 413.174C413.072 414.055 419.107 416.239 431.044 417.433C443.868 418.717 462.641 418.785 481.086 418.755C519.49 418.691 558.876 418.297 599.039 417.573C615.814 417.271 633.39 416.878 651.241 415.438C669.091 413.997 687.297 411.218 691.063 408.613" fill="white"/>
</g>
</g>
<defs>
<clipPath id="clip0_2_83">
<rect width="829.131" height="587.676" fill="white"/>
</clipPath>
</defs>
</svg>
