<svg width="257" height="588" viewBox="0 0 257 588" fill="none" xmlns="http://www.w3.org/2000/svg">
<path d="M67.9276 572.846L81.6886 572.846L88.2356 519.764L67.9246 519.765L67.9276 572.846Z" fill="#FFB6B6"/>
<path d="M67.4427 587.203L109.762 587.201V586.666C109.762 582.297 108.026 578.108 104.937 575.019C101.848 571.93 97.6587 570.194 93.2902 570.194H93.2892L85.559 564.33L71.1362 570.195L67.442 570.195L67.4427 587.203Z" fill="#2F2E41"/>
<path d="M90.1506 508.624L100.985 517.109L138.873 479.36L122.883 466.835L90.1506 508.624Z" fill="#FFB6B6"/>
<path d="M80.9156 519.626L114.231 545.722L114.561 545.301C117.255 541.862 118.472 537.493 117.945 533.157C117.419 528.82 115.191 524.87 111.752 522.176L111.751 522.176L109.282 512.792L94.3113 508.515L91.4031 506.237L80.9156 519.626Z" fill="#2F2E41"/>
<path d="M154.941 266.763C154.941 266.763 173.206 285.704 165.088 329.675L171.903 404.963L173.662 408.448C174.71 410.525 175.076 412.88 174.708 415.177C174.34 417.474 173.256 419.596 171.611 421.241V421.241L170.162 425.734L168.809 434.528L118.412 510.293L99.1324 489.999L130.25 418.969L121.794 400.704L102.177 337.116L88.6471 453.469L91.353 553.587H65.458L49.4118 441.969L32.5001 285.028L41.2969 266.763H154.941Z" fill="#412E2E"/>
<path d="M36.7176 299.309L36.5331 299.05C26.6766 285.251 41.5007 252.092 43.7366 247.285C41.0816 246.423 38.8074 244.668 37.3012 242.318C35.795 239.968 35.1501 237.168 35.4762 234.396L36.44 226.203L37.4447 218.167L30.2473 210.97L30.227 210.79L26.085 174.548L20.0627 150.476C17.7936 141.376 17.987 131.836 20.623 122.835C23.2591 113.835 28.2429 105.698 35.0628 99.2595L48.9834 97.0491L65.9012 80.7485H93.1832L102.538 89.6858C120 92.7485 123 91.7485 138 109.748L131.184 165.711L129.484 173.41L129.489 183.852L133.812 188.656C135.369 190.386 136.5 192.457 137.116 194.702C137.732 196.947 137.815 199.305 137.358 201.587L136.789 204.43C141.248 206.34 145.502 240.295 146.518 245.038L148.037 252.123C149.336 253.837 157.909 265.269 157.909 268.394C157.909 268.863 157.563 269.317 156.82 269.82C150.977 273.776 127.682 301.842 113.389 296.123C98.164 290.035 37.6419 299.168 37.0321 299.261L36.7176 299.309Z" fill="#382ADB"/>
<path d="M33.0522 234.234C33.0522 234.234 40.0582 194.639 33.0001 179.749L5.00009 181.749L9.26129 238.235L33.7385 300.953C33.3649 302.885 33.5092 304.882 34.1568 306.74C34.8044 308.599 35.9322 310.253 37.4257 311.534C38.9192 312.816 40.7253 313.68 42.6606 314.038C44.5958 314.396 46.5914 314.236 48.4446 313.573C50.2978 312.91 51.9428 311.769 53.2124 310.266C54.4821 308.762 55.3312 306.949 55.6737 305.011C56.0161 303.073 55.8397 301.078 55.1623 299.231C54.4849 297.383 53.3306 295.747 51.8166 294.49L33.0522 234.234Z" fill="#FFB6B6"/>
<path d="M5.00008 158.749L6.73299 139.877C7.38519 132.775 9.43519 125.872 12.7651 119.564C16.0949 113.257 20.6389 107.67 26.1358 103.125V103.125C29.5511 100.323 33.6823 98.5308 38.0626 97.9525C42.4428 97.3743 46.8975 98.0328 50.9232 99.8534V99.8534C56.3637 102.358 60.6501 106.835 62.9157 112.38C65.1814 117.924 65.2572 124.122 63.1279 129.72C56.6564 146.692 58.9932 164.641 46.3744 166.829L47.7454 173.352L35.338 213.842L0 209.749L5.00008 158.749Z" fill="#7D78BD"/>
<path d="M191.377 215.467C191.377 215.467 170.868 180.882 155.806 174.196L135.883 193.971L175.95 234.015L235.406 265.6C236.383 267.308 237.795 268.728 239.498 269.715C241.201 270.701 243.134 271.22 245.102 271.217C247.071 271.215 249.003 270.692 250.704 269.702C252.404 268.711 253.813 267.288 254.785 265.577C255.758 263.866 256.261 261.929 256.243 259.961C256.225 257.993 255.686 256.064 254.682 254.372C253.678 252.679 252.244 251.282 250.525 250.323C248.807 249.364 246.865 248.877 244.897 248.911L191.377 215.467Z" fill="#FFB6B6"/>
<path d="M120.884 176.535L109.892 161.098C105.754 155.289 102.807 148.718 101.218 141.765C99.629 134.812 99.4307 127.613 100.634 120.583V120.583C101.395 116.231 103.359 112.179 106.302 108.884C109.246 105.589 113.053 103.183 117.292 101.938V101.938C123.05 100.289 129.219 100.888 134.552 103.614C139.885 106.339 143.985 110.989 146.021 116.621C152.183 133.708 174.66 161.792 166.52 171.68L171.813 175.73L179.812 198.518L150.352 218.459L120.884 176.535Z" fill="#594FC5"/>
<path d="M77.7014 72.8739C94.4349 72.8739 108 59.3087 108 42.5752C108 25.8418 94.4349 12.2766 77.7014 12.2766C60.9679 12.2766 47.4028 25.8418 47.4028 42.5752C47.4028 59.3087 60.9679 72.8739 77.7014 72.8739Z" fill="#A88A8A"/>
<path d="M55.713 63.9312C55.4485 63.6993 55.1988 63.4516 54.9404 63.2133C54.9311 63.2377 54.9297 63.2628 54.9198 63.2871L55.713 63.9312Z" fill="#2F2E41"/>
<path d="M102.531 10.5798C101.026 8.15643 98.9405 6.14604 96.4638 4.73007C94.771 3.90903 92.9922 3.27876 91.1601 2.85088L86.3651 1.5426C83.9083 0.782375 81.3806 0.273422 78.821 0.0235894C75.2666 -0.151753 71.7324 0.653036 68.6044 2.35004C65.4763 4.04704 62.8748 6.57099 61.0839 9.64622C59.6352 12.2158 58.4732 15.4178 55.6772 16.3579C53.4227 17.1159 50.9629 16.0466 48.5935 16.2541C47.205 16.4553 45.8876 16.9959 44.7581 17.8279C43.6285 18.6599 42.7216 19.7578 42.1177 21.0241C40.9369 23.5724 40.3557 26.3574 40.4188 29.1653C40.3257 35.5402 41.5699 41.8639 44.0711 47.7283C46.5724 53.5928 50.2751 58.8679 54.9404 63.2133C55.7224 61.152 54.4344 58.9265 53.4162 56.9547C52.386 54.9595 51.7493 52.1779 53.4748 50.7409C55.3948 49.1419 58.4709 50.6925 60.7416 49.6497C61.4681 49.2324 62.0799 48.6418 62.5224 47.9304C62.965 47.2191 63.2245 46.4092 63.2777 45.5731C63.4975 43.9164 63.2681 42.2323 63.3721 40.5643C63.4751 38.9109 63.9047 37.2943 64.636 35.8078C65.3674 34.3213 66.3859 32.9945 67.6329 31.9038C68.8799 30.8132 70.3306 29.9804 71.9012 29.4536C73.4718 28.9267 75.1313 28.7162 76.7837 28.8343C81.9522 29.2034 86.968 32.7352 91.9418 31.2823C94.2765 30.6003 96.2678 28.8638 98.6825 28.5717C101.357 28.2482 103.872 29.7574 106.143 31.2065C106.968 27.7029 107.073 24.0683 106.453 20.5227C105.832 16.9772 104.498 13.5946 102.531 10.5798Z" fill="#2F2E41"/>
<path d="M207.57 570.18L199.86 557.79L198.32 564.87C198.05 566.11 197.78 567.37 197.53 568.62C195.34 566.75 193.01 565.02 190.73 563.36C183.73 558.28 176.733 553.193 169.74 548.1L171.93 560.8C173.28 568.62 174.69 576.6 178.03 583.75C178.4 584.56 178.8 585.36 179.23 586.14H211.77C212.032 585.415 212.213 584.664 212.31 583.9C212.318 583.85 212.322 583.8 212.32 583.75C212.83 578.9 210.15 574.33 207.57 570.18Z" fill="#F0F0F0"/>
</svg>
