<svg width="573" height="510" viewBox="0 0 573 510" fill="none" xmlns="http://www.w3.org/2000/svg">
<g filter="url(#filter0_d_9_2)">
<rect width="565" height="502" transform="translate(4)" fill="black" fill-opacity="0.8"/>
<ellipse cx="281.5" cy="117.5" rx="5.5" ry="4.5" fill="#D9D9D9"/>
<ellipse cx="444.5" cy="70.5" rx="5.5" ry="4.5" fill="#D9D9D9"/>
<ellipse cx="343.5" cy="203.5" rx="5.5" ry="4.5" fill="#D9D9D9"/>
<ellipse cx="85.5" cy="319.5" rx="5.5" ry="4.5" fill="#D9D9D9"/>
<ellipse cx="228.5" cy="255.5" rx="5.5" ry="4.5" fill="#D9D9D9"/>
<ellipse cx="201.5" cy="136.5" rx="5.5" ry="4.5" fill="#D9D9D9"/>
<ellipse cx="201.5" cy="61.5" rx="5.5" ry="4.5" fill="#D9D9D9"/>
<ellipse cx="109.5" cy="145.5" rx="5.5" ry="4.5" fill="#D9D9D9"/>
<ellipse cx="189.5" cy="236.5" rx="5.5" ry="4.5" fill="#D9D9D9"/>
<ellipse cx="251.5" cy="322.5" rx="5.5" ry="4.5" fill="#D9D9D9"/>
<ellipse cx="136.5" cy="374.5" rx="5.5" ry="4.5" fill="#D9D9D9"/>
<ellipse cx="109.5" cy="255.5" rx="5.5" ry="4.5" fill="#D9D9D9"/>
<ellipse cx="17.5" cy="264.5" rx="5.5" ry="4.5" fill="#D9D9D9"/>
<ellipse cx="493.5" cy="339.5" rx="5.5" ry="4.5" fill="#D9D9D9"/>
<ellipse cx="555.5" cy="425.5" rx="5.5" ry="4.5" fill="#D9D9D9"/>
<ellipse cx="440.5" cy="477.5" rx="5.5" ry="4.5" fill="#D9D9D9"/>
<ellipse cx="413.5" cy="358.5" rx="5.5" ry="4.5" fill="#D9D9D9"/>
<ellipse cx="321.5" cy="367.5" rx="5.5" ry="4.5" fill="#D9D9D9"/>
<ellipse cx="476.5" cy="19.5" rx="5.5" ry="4.5" fill="#D9D9D9"/>
<ellipse cx="538.5" cy="105.5" rx="5.5" ry="4.5" fill="#D9D9D9"/>
<ellipse cx="423.5" cy="157.5" rx="5.5" ry="4.5" fill="#D9D9D9"/>
<ellipse cx="396.5" cy="38.5" rx="5.5" ry="4.5" fill="#D9D9D9"/>
<ellipse cx="304.5" cy="47.5" rx="5.5" ry="4.5" fill="#D9D9D9"/>
<ellipse cx="203.5" cy="15.5" rx="5.5" ry="4.5" fill="#D9D9D9"/>
<ellipse cx="265.5" cy="101.5" rx="5.5" ry="4.5" fill="#D9D9D9"/>
<ellipse cx="150.5" cy="153.5" rx="5.5" ry="4.5" fill="#D9D9D9"/>
<ellipse cx="123.5" cy="34.5" rx="5.5" ry="4.5" fill="#D9D9D9"/>
<ellipse cx="31.5" cy="43.5" rx="5.5" ry="4.5" fill="#D9D9D9"/>
<ellipse cx="208.5" cy="171.5" rx="5.5" ry="4.5" fill="#D9D9D9"/>
<ellipse cx="270.5" cy="257.5" rx="5.5" ry="4.5" fill="#D9D9D9"/>
<ellipse cx="155.5" cy="309.5" rx="5.5" ry="4.5" fill="#D9D9D9"/>
<ellipse cx="128.5" cy="190.5" rx="5.5" ry="4.5" fill="#D9D9D9"/>
<ellipse cx="36.5" cy="199.5" rx="5.5" ry="4.5" fill="#D9D9D9"/>
<ellipse cx="219.5" cy="351.5" rx="5.5" ry="4.5" fill="#D9D9D9"/>
<ellipse cx="281.5" cy="437.5" rx="5.5" ry="4.5" fill="#D9D9D9"/>
<ellipse cx="166.5" cy="489.5" rx="5.5" ry="4.5" fill="#D9D9D9"/>
<ellipse cx="139.5" cy="370.5" rx="5.5" ry="4.5" fill="#D9D9D9"/>
<ellipse cx="47.5" cy="379.5" rx="5.5" ry="4.5" fill="#D9D9D9"/>
<ellipse cx="384.5" cy="307.5" rx="5.5" ry="4.5" fill="#D9D9D9"/>
<ellipse cx="446.5" cy="393.5" rx="5.5" ry="4.5" fill="#D9D9D9"/>
<ellipse cx="331.5" cy="445.5" rx="5.5" ry="4.5" fill="#D9D9D9"/>
<ellipse cx="304.5" cy="326.5" rx="5.5" ry="4.5" fill="#D9D9D9"/>
<ellipse cx="212.5" cy="335.5" rx="5.5" ry="4.5" fill="#D9D9D9"/>
<ellipse cx="487.5" cy="134.5" rx="5.5" ry="4.5" fill="#D9D9D9"/>
<ellipse cx="549.5" cy="220.5" rx="5.5" ry="4.5" fill="#D9D9D9"/>
<ellipse cx="434.5" cy="272.5" rx="5.5" ry="4.5" fill="#D9D9D9"/>
<ellipse cx="407.5" cy="153.5" rx="5.5" ry="4.5" fill="#D9D9D9"/>
<ellipse cx="315.5" cy="162.5" rx="5.5" ry="4.5" fill="#D9D9D9"/>
</g>
<defs>
<filter id="filter0_d_9_2" x="0" y="0" width="573" height="510" filterUnits="userSpaceOnUse" color-interpolation-filters="sRGB">
<feFlood flood-opacity="0" result="BackgroundImageFix"/>
<feColorMatrix in="SourceAlpha" type="matrix" values="0 0 0 0 0 0 0 0 0 0 0 0 0 0 0 0 0 0 127 0" result="hardAlpha"/>
<feOffset dy="4"/>
<feGaussianBlur stdDeviation="2"/>
<feComposite in2="hardAlpha" operator="out"/>
<feColorMatrix type="matrix" values="0 0 0 0 0 0 0 0 0 0 0 0 0 0 0 0 0 0 0.25 0"/>
<feBlend mode="normal" in2="BackgroundImageFix" result="effect1_dropShadow_9_2"/>
<feBlend mode="normal" in="SourceGraphic" in2="effect1_dropShadow_9_2" result="shape"/>
</filter>
</defs>
</svg>
